<svg width="74" height="110" viewBox="0 0 74 110" fill="none" xmlns="http://www.w3.org/2000/svg">
<path d="M42 5C42 2.23858 39.7614 0 37 0C34.2386 0 32 2.23858 32 5L42 5ZM33.4645 108.536C35.4171 110.488 38.5829 110.488 40.5355 108.536L72.3553 76.7157C74.308 74.7631 74.308 71.5973 72.3553 69.6447C70.4027 67.692 67.2369 67.692 65.2843 69.6447L37 97.9289L8.71573 69.6447C6.76311 67.692 3.59728 67.692 1.64466 69.6447C-0.307961 71.5973 -0.307961 74.7631 1.64466 76.7157L33.4645 108.536ZM32 5L32 105H42L42 5L32 5Z" fill="white"/>
</svg>
